<?xml version="1.0" encoding="utf-8"?>
<!-- Generator: Adobe Illustrator 16.0.0, SVG Export Plug-In . SVG Version: 6.00 Build 0)  -->
<!DOCTYPE svg PUBLIC "-//W3C//DTD SVG 1.1//EN" "http://www.w3.org/Graphics/SVG/1.1/DTD/svg11.dtd">
<svg version="1.1" id="Layer_1" xmlns="http://www.w3.org/2000/svg" xmlns:xlink="http://www.w3.org/1999/xlink" x="0px" y="0px"
	 width="346px" height="121px" viewBox="0 0 346 121" enable-background="new 0 0 346 121" xml:space="preserve">
<g>
	<path fill-rule="evenodd" clip-rule="evenodd" d="M41.461,37.496l-2.285,10.52h0.305C45.73,38.566,54.111,35.82,63.41,35.82
		l-4.271,20.426c-19.962-1.228-22.708,10.517-24.535,18.589l-9.45,44.805H2.142L19.67,37.496H41.461z"/>
	<path fill-rule="evenodd" clip-rule="evenodd" d="M77.277,82.149c-1.979,9.757-4.877,24.387,5.184,24.387
		c8.23,0,11.43-7.767,12.952-14.63h23.318c-2.285,8.996-6.706,16.305-13.409,21.335c-6.404,5.039-15.242,7.933-25.906,7.933
		c-29.571,0-29.722-17.992-24.24-43.743c4.727-22.41,12.196-41.61,42.373-41.61c30.936,0,30.023,19.966,23.621,46.329H77.277z
		 M101.052,69.351c1.677-8.083,4.419-19.357-6.553-19.357c-10.516,0-12.952,12.343-14.477,19.357H101.052z"/>
	<path fill-rule="evenodd" clip-rule="evenodd" d="M129.553,37.496h9.3l2.741-13.104l25.144-10.205l-4.875,23.309h11.891
		l-3.052,14.019h-11.889l-9.295,44.044c-1.372,6.103-2.441,10.217,5.026,10.217c1.525,0,3.052,0,4.269-0.305l-3.045,14.169
		c-3.205,0.306-6.556,0.769-12.037,0.769c-19.817,0-19.666-13.263-18.597-18.292L135.8,51.515h-9.298L129.553,37.496z"/>
	<path fill-rule="evenodd" clip-rule="evenodd" d="M224.042,104.25c-1.064,5.032-1.524,10.216-2.134,15.39h-21.334l1.368-10.97
		h-0.303c-6.707,8.535-14.174,12.501-24.08,12.501c-16.003,0-19.355-11.889-16.306-26.221c5.789-27.127,26.974-28.188,48.312-27.885
		l1.221-6.401c1.521-7.014,1.673-12.039-6.71-12.039c-7.923,0-9.903,6.09-11.28,12.495h-22.399
		c2.132-9.906,6.55-16.156,12.649-19.967c6.097-3.963,13.866-5.334,22.707-5.334c29.108,0,30.173,12.494,26.975,27.434
		L224.042,104.25z M183.96,94.04c-1.374,5.792-1.828,12.951,5.639,12.951c13.563,0,15.24-18.135,17.221-27.13
		C195.237,80.327,187.01,79.411,183.96,94.04L183.96,94.04z"/>
	<polygon fill-rule="evenodd" clip-rule="evenodd" points="231.208,119.64 256.2,2.142 279.059,2.142 264.278,72.096 
		264.583,72.096 292.623,37.496 316.551,37.496 285.458,74.076 301.615,119.64 275.703,119.64 263.97,74.833 263.669,74.833 
		254.064,119.64 	"/>
	<path fill-rule="evenodd" clip-rule="evenodd" d="M343.883,48.038c0,3.153-1.113,5.844-3.342,8.07
		c-2.217,2.232-4.906,3.347-8.063,3.347c-3.15,0-5.842-1.115-8.072-3.347c-2.227-2.226-3.342-4.917-3.342-8.07
		c0-3.152,1.115-5.84,3.342-8.075c2.23-2.226,4.922-3.339,8.072-3.339c3.156,0,5.846,1.113,8.063,3.339
		C342.77,42.198,343.883,44.886,343.883,48.038L343.883,48.038z M342.611,48.038c0-2.795-0.99-5.19-2.967-7.17
		c-1.979-1.985-4.365-2.975-7.182-2.975c-2.799,0-5.184,0.99-7.158,2.975c-1.98,1.98-2.973,4.375-2.973,7.17
		c0,2.8,0.992,5.186,2.973,7.173c1.975,1.985,4.359,2.968,7.158,2.968c2.816,0,5.203-0.983,7.182-2.968
		C341.621,53.224,342.611,50.838,342.611,48.038L342.611,48.038z M328.242,41.495h4.771c1.721,0,2.963,0.319,3.715,0.943
		c0.744,0.633,1.123,1.43,1.123,2.372c0,0.991-0.395,1.83-1.17,2.504c-0.574,0.484-1.402,0.805-2.492,0.968
		c0.488,0.235,0.84,0.443,1.041,0.625c0.205,0.185,0.523,0.564,0.949,1.157c0.428,0.587,0.758,1.082,0.982,1.481l1.252,2.236h-1.959
		l-1.189-2.034c-0.912-1.576-1.605-2.519-2.084-2.826c-0.477-0.315-1.252-0.463-2.34-0.463h-1.02v5.322h-1.58V41.495z
		 M329.822,42.794v4.283h1.566c1.713,0,2.848-0.091,3.408-0.264c0.406-0.114,0.742-0.351,1-0.719c0.27-0.363,0.4-0.75,0.4-1.145
		c0-0.586-0.221-1.093-0.668-1.521c-0.449-0.42-1.568-0.634-3.367-0.634H329.822z"/>
</g>
</svg>
